<svg width="12" height="12" viewBox="0 0 12 12" fill="none" xmlns="http://www.w3.org/2000/svg">
<path d="M3.8125 6.9375C4.60417 6.75 5.33333 6.65625 6 6.65625C6.66667 6.65625 7.39583 6.75 8.1875 6.9375C8.97917 7.125 9.69792 7.4375 10.3438 7.875C11.0104 8.3125 11.3438 8.80208 11.3438 9.34375V11.3438H0.65625V9.34375C0.65625 8.80208 0.979167 8.3125 1.625 7.875C2.29167 7.4375 3.02083 7.125 3.8125 6.9375ZM4.125 1.46875C4.64583 0.927083 5.27083 0.65625 6 0.65625C6.72917 0.65625 7.35417 0.927083 7.875 1.46875C8.39583 1.98958 8.65625 2.61458 8.65625 3.34375C8.65625 4.07292 8.39583 4.69792 7.875 5.21875C7.35417 5.73958 6.72917 6 6 6C5.27083 6 4.64583 5.73958 4.125 5.21875C3.60417 4.69792 3.34375 4.07292 3.34375 3.34375C3.34375 2.61458 3.60417 1.98958 4.125 1.46875ZM8.71875 8.46875C7.82292 8.11458 6.91667 7.9375 6 7.9375C5.08333 7.9375 4.17708 8.11458 3.28125 8.46875C2.38542 8.80208 1.9375 9.09375 1.9375 9.34375V10.0625H10.0625V9.34375C10.0625 9.09375 9.61458 8.80208 8.71875 8.46875ZM7 2.34375C6.72917 2.07292 6.39583 1.9375 6 1.9375C5.60417 1.9375 5.27083 2.07292 5 2.34375C4.72917 2.61458 4.59375 2.94792 4.59375 3.34375C4.59375 3.73958 4.72917 4.07292 5 4.34375C5.27083 4.59375 5.60417 4.71875 6 4.71875C6.39583 4.71875 6.72917 4.59375 7 4.34375C7.27083 4.07292 7.40625 3.73958 7.40625 3.34375C7.40625 2.94792 7.27083 2.61458 7 2.34375Z" fill="#D7F9FF"/>
</svg>
